<svg width="52" height="50" viewBox="0 0 52 50" fill="none" xmlns="http://www.w3.org/2000/svg">
<path d="M25.9988 16.6786C21.2076 16.6786 17.3449 20.4286 17.3449 25C17.3449 29.5714 21.2448 33.3214 25.9988 33.3214C30.7529 33.3214 34.6527 29.5714 34.6527 25C34.6527 20.4286 30.7529 16.6786 25.9988 16.6786ZM51.9977 25C51.9977 21.5357 51.9977 18.1429 51.812 14.6786C51.6263 10.6786 50.6606 7.10714 47.615 4.21429C44.5694 1.28571 40.8925 0.357143 36.7326 0.178571C33.13 -1.7296e-07 29.6015 0 25.9988 0C22.3961 0 18.8677 -1.7296e-07 15.265 0.178571C11.1052 0.357143 7.3911 1.28571 4.38266 4.21429C1.33708 7.14286 0.371412 10.6786 0.185706 14.6786C-1.7987e-07 18.1429 0 21.5357 0 25C0 28.4643 -1.7987e-07 31.8571 0.185706 35.3214C0.371412 39.3214 1.33708 42.8929 4.38266 45.7857C7.42824 48.7143 11.1052 49.6429 15.265 49.8214C18.8677 50 22.3961 50 25.9988 50C29.6015 50 33.13 50 36.7326 49.8214C40.8925 49.6429 44.6066 48.7143 47.615 45.7857C50.6606 42.8571 51.6263 39.3214 51.812 35.3214C52.0348 31.8929 51.9977 28.4643 51.9977 25ZM25.9988 37.8214C18.6077 37.8214 12.6651 32.1071 12.6651 25C12.6651 17.8929 18.6077 12.1786 25.9988 12.1786C33.3899 12.1786 39.3325 17.8929 39.3325 25C39.3325 32.1071 33.3899 37.8214 25.9988 37.8214ZM39.8896 14.6429C38.1812 14.6429 36.7698 13.3214 36.7698 11.6429C36.7698 9.96429 38.144 8.64286 39.8896 8.64286C41.6353 8.64286 43.0095 9.96429 43.0095 11.6429C43.0189 12.0341 42.9446 12.4229 42.7913 12.7854C42.638 13.1479 42.4088 13.4762 42.1181 13.75C41.8334 14.0295 41.4919 14.2499 41.115 14.3973C40.738 14.5448 40.3336 14.6162 39.9268 14.6071L39.8896 14.6429Z" fill="#FFFBF6"/>
</svg>
